<svg aria-hidden="true" data-prefix="fal" data-icon="reflect-both" class="svg-inline--fa fa-reflect-both" xmlns="http://www.w3.org/2000/svg" viewBox="0 0 512 512"><path fill="currentColor" d="M128 32h256L256 160 128 32zM384 0H128c-12.9 0-24.6 7.8-29.6 19.8s-2.2 25.7 6.9 34.9l128 128c12.5 12.5 32.8 12.5 45.3 0l128-128c9.2-9.2 11.9-22.9 6.9-34.9S396.9 0 384 0zM32 128l128 128L32 384V128zM19.8 98.4C7.8 103.4 0 115.1 0 128v256c0 12.9 7.8 24.6 19.8 29.6s25.7 2.2 34.9-6.9l128-128c12.5-12.5 12.5-32.8 0-45.3l-128-128c-9.2-9.2-22.9-11.9-34.9-6.9zM480 128v256L352 256l128-128zm12.2-29.6c-12-5-25.7-2.2-34.9 6.9l-128 128c-12.5 12.5-12.5 32.8 0 45.3l128 128c9.2 9.2 22.9 11.9 34.9 6.9s19.8-16.6 19.8-29.6v-256c0-12.9-7.8-24.6-19.8-29.6zM384 480H128l128-128 128 128zm29.6 12.2c5-12 2.2-25.7-6.9-34.9l-128-128c-12.5-12.5-32.8-12.5-45.3 0l-128 128c-9.2 9.2-11.9 22.9-6.9 34.9s16.6 19.8 29.6 19.8h256c12.9 0 24.6-7.8 29.6-19.8z"/></svg>