<svg aria-hidden="true" data-prefix="fal" data-icon="rocket" class="svg-inline--fa fa-rocket" xmlns="http://www.w3.org/2000/svg" viewBox="0 0 512 512"><path fill="currentColor" d="m188.9 372-50.4-50.4c18.6-42.7 61.7-137.7 95.1-187 71-104.5 175.4-110 242.1-98.3 11.7 66.7 6.2 171.1-98.4 242-49.4 33.5-145.5 75.6-188.4 93.7zM109 309.2c-5.2 11.9-2.5 25.7 6.7 34.9l50.7 50.7c9.1 9.1 22.7 11.9 34.5 6.9 6.5-2.7 14.3-6 23-9.8L224 496c0 5.5 2.9 10.7 7.6 13.6s10.6 3.2 15.6.7l101.5-50.7c21.7-10.8 35.4-33 35.4-57.2v-90.3c4-2.5 7.7-4.9 11.3-7.3 120.7-81.9 124.7-203.9 111.3-276.7-2.1-11.6-11.2-20.6-22.8-22.8-72.8-13.4-194.8-9.4-276.7 111.4-2.4 3.6-4.9 7.3-7.3 11.3h-90.2c-24.2 0-46.4 13.7-57.2 35.4L1.7 264.8c-2.5 5-2.2 10.9.7 15.6S10.5 288 16 288h102.5c-3.6 8-6.8 15.2-9.4 21.2zm147 160.9v-92.5c30.3-13.7 65.4-30.3 96-47v71.7c0 12.1-6.8 23.2-17.7 28.6L256 470.1zM109.7 160h71.5c-16.9 30.7-34 65.8-48.1 96H41.9L81 177.7c5.4-10.8 16.5-17.7 28.6-17.7zM392 144a24 24 0 1 1-48 0 24 24 0 1 1 48 0zm-24-56a56 56 0 1 0 0 112 56 56 0 1 0 0-112z"/></svg>